<svg xmlns="http://www.w3.org/2000/svg" width="13" height="12" viewBox="0 0 13 12" fill="none">
  <path fill-rule="evenodd" clip-rule="evenodd" d="M3.67468 2.58228C3.67468 1.10087 4.99742 0 6.49996 0C8.00251 0 9.32521 1.10087 9.32521 2.58228C9.32521 4.06369 8.00251 5.16455 6.49996 5.16455C4.99742 5.16455 3.67468 4.06369 3.67468 2.58228ZM6.49996 0.911394C5.37453 0.911394 4.56688 1.71473 4.56688 2.58228C4.56688 3.44983 5.37453 4.25317 6.49996 4.25317C7.62541 4.25317 8.43307 3.44983 8.43307 2.58228C8.43307 1.71473 7.62541 0.911394 6.49996 0.911394Z" fill="#666666"/>
  <path fill-rule="evenodd" clip-rule="evenodd" d="M3.45954 6.72509C5.32596 5.54501 7.67391 5.54501 9.54033 6.72509C10.6336 7.41635 11.2999 8.64611 11.2999 9.97079V10.2791C11.2999 10.4003 11.3 10.4969 11.2908 10.5838C11.2123 11.3237 10.6474 11.9092 9.93051 11.9905C9.84633 12.0001 9.75285 12 9.63573 12H3.36415C3.24707 12 3.15357 12.0001 3.0694 11.9905C2.35244 11.9092 1.78753 11.3237 1.70911 10.5838C1.6999 10.4969 1.69992 10.4003 1.69996 10.2791V9.97079C1.69996 8.64611 2.36627 7.41635 3.45954 6.72509ZM9.07077 7.51643C7.49253 6.51851 5.50738 6.51851 3.92912 7.51643C3.10316 8.03867 2.59895 8.96837 2.59895 9.97079V10.2542C2.59895 10.412 2.59963 10.4533 2.60276 10.4829C2.6355 10.7918 2.87096 11.0344 3.16763 11.0681C3.19605 11.0713 3.23576 11.072 3.38833 11.072H9.61155C9.76413 11.072 9.80385 11.0713 9.83229 11.0681C10.1289 11.0344 10.3644 10.7918 10.3971 10.4829C10.4002 10.4533 10.401 10.412 10.401 10.2542V9.97079C10.401 8.96837 9.89673 8.03867 9.07077 7.51643Z" fill="#666666"/>
</svg>