<svg width="12" height="11" viewBox="0 0 12 11" fill="none" xmlns="http://www.w3.org/2000/svg">
<path d="M3.36394 6.00515C3.68326 6.00515 3.94212 5.77148 3.94212 5.4832C3.94212 5.19493 3.68326 4.96127 3.36394 4.96127C3.04462 4.96127 2.78577 5.19493 2.78577 5.4832C2.78577 5.77148 3.04462 6.00515 3.36394 6.00515Z" fill="#666666"/>
<path d="M3.36394 8.09274C3.68326 8.09274 3.94212 7.85907 3.94212 7.5708C3.94212 7.28253 3.68326 7.04886 3.36394 7.04886C3.04462 7.04886 2.78577 7.28253 2.78577 7.5708C2.78577 7.85907 3.04462 8.09274 3.36394 8.09274Z" fill="#666666"/>
<path d="M8.56747 5.4832C8.56747 5.77148 8.30861 6.00515 7.98933 6.00515C7.66999 6.00515 7.41113 5.77148 7.41113 5.4832C7.41113 5.19493 7.66999 4.96127 7.98933 4.96127C8.30861 4.96127 8.56747 5.19493 8.56747 5.4832Z" fill="#666666"/>
<path d="M7.98933 8.09274C8.30861 8.09274 8.56747 7.85907 8.56747 7.5708C8.56747 7.28253 8.30861 7.04886 7.98933 7.04886C7.66999 7.04886 7.41113 7.28253 7.41113 7.5708C7.41113 7.85907 7.66999 8.09274 7.98933 8.09274Z" fill="#666666"/>
<path d="M6.25487 5.4832C6.25487 5.77148 5.99601 6.00515 5.67667 6.00515C5.35737 6.00515 5.09851 5.77148 5.09851 5.4832C5.09851 5.19493 5.35737 4.96127 5.67667 4.96127C5.99601 4.96127 6.25487 5.19493 6.25487 5.4832Z" fill="#666666"/>
<path d="M6.20225 7.46007C6.20225 7.74834 5.9434 7.98201 5.62405 7.98201C5.30476 7.98201 5.0459 7.74834 5.0459 7.46007C5.0459 7.1718 5.30476 6.93814 5.62405 6.93814C5.9434 6.93814 6.20225 7.1718 6.20225 7.46007Z" fill="#666666"/>
<path fill-rule="evenodd" clip-rule="evenodd" d="M3.36397 0C3.62524 0 3.83703 0.191189 3.83703 0.427028V0.534121C4.2779 0.521965 4.7823 0.521965 5.36179 0.521971H5.99153C6.57105 0.521965 7.07546 0.521965 7.51628 0.534121V0.427028C7.51628 0.191189 7.72809 0 7.98934 0C8.25059 0 8.46239 0.191189 8.46239 0.427028V0.593285C8.99449 0.653786 9.44332 0.769209 9.84138 1.00185C10.2337 1.23108 10.5678 1.53267 10.8217 1.88678C11.1073 2.2851 11.2335 2.73964 11.294 3.29041C11.3533 3.82948 11.3533 4.50477 11.3533 5.36211V5.40863C11.3533 6.26593 11.3533 6.9412 11.294 7.48028C11.2335 8.03104 11.1073 8.48562 10.8217 8.8839C10.5678 9.23805 10.2337 9.53964 9.84138 9.76887C9.40018 10.0267 8.89666 10.1406 8.28648 10.1952C7.68936 10.2487 6.9413 10.2487 5.99159 10.2487H5.36175C4.41205 10.2487 3.664 10.2487 3.06684 10.1952C2.4567 10.1406 1.95317 10.0267 1.51192 9.76887C1.11963 9.53964 0.785543 9.23805 0.531607 8.8839C0.245964 8.48562 0.119841 8.03104 0.0592707 7.48028C-8.16283e-06 6.9412 -4.33911e-06 6.26593 7.60744e-08 5.40863V5.36205C-4.33911e-06 4.50476 -8.16283e-06 3.82948 0.0592707 3.29041C0.119841 2.73964 0.245964 2.2851 0.531607 1.88678C0.785543 1.53267 1.11963 1.23108 1.51192 1.00185C1.91003 0.769209 2.35885 0.653786 2.89092 0.593285V0.427028C2.89092 0.191189 3.10271 0 3.36397 0ZM7.51628 1.38854V1.47087C7.51628 1.70672 7.72809 1.8979 7.98934 1.8979C8.25059 1.8979 8.46239 1.70672 8.46239 1.47087V1.45546C8.84759 1.50829 9.11155 1.59275 9.32726 1.7188C9.6075 1.88253 9.84611 2.09796 10.0275 2.35089C10.1576 2.5323 10.2477 2.75153 10.3067 3.06182C10.1183 3.04328 9.88888 3.02291 9.61867 3.00258C8.73834 2.93636 7.42438 2.87063 5.67666 2.87063C3.92897 2.87063 2.61496 2.93636 1.73467 3.00258C1.46443 3.02291 1.23507 3.04328 1.0466 3.06182C1.10564 2.75153 1.19574 2.5323 1.32583 2.35089C1.50721 2.09796 1.74585 1.88253 2.02605 1.7188C2.24176 1.59275 2.50574 1.50829 2.89092 1.45546V1.47087C2.89092 1.70672 3.10271 1.8979 3.36397 1.8979C3.62524 1.8979 3.83703 1.70672 3.83703 1.47087V1.38854C4.26356 1.37622 4.77012 1.37603 5.38758 1.37603H5.96573C6.58323 1.37603 7.08978 1.37622 7.51628 1.38854ZM10.3913 3.93003C10.1851 3.90795 9.9013 3.88086 9.54008 3.85369C8.68586 3.78943 7.39802 3.72468 5.67666 3.72468C3.95529 3.72468 2.66749 3.78943 1.81324 3.85369C1.452 3.88086 1.16827 3.90795 0.962056 3.93003C0.946351 4.32647 0.946111 4.80087 0.946111 5.38534C0.946111 6.27105 0.946653 6.90397 1.00075 7.3959C1.0541 7.88101 1.15581 8.18272 1.32583 8.4198C1.50721 8.67272 1.74585 8.88817 2.02605 9.05192C2.28869 9.20536 2.6229 9.2972 3.1603 9.34532C3.70528 9.39417 4.40642 9.39468 5.38758 9.39468H5.96573C6.94691 9.39468 7.64804 9.39417 8.193 9.34532C8.73046 9.2972 9.06462 9.20536 9.32726 9.05192C9.6075 8.88817 9.84611 8.67272 10.0275 8.4198C10.1975 8.18272 10.2992 7.88101 10.3526 7.3959C10.4067 6.90397 10.4072 6.27105 10.4072 5.38534C10.4072 4.80087 10.407 4.32647 10.3913 3.93003Z" fill="#666666"/>
</svg>
