<svg width="40" height="40" viewBox="0 0 40 40" fill="none" xmlns="http://www.w3.org/2000/svg">
<path fill-rule="evenodd" clip-rule="evenodd" d="M4 17.265C4 3.04676 12 0 20 0C28 0 36 3.04676 36 17.265C36 28.4314 26.1314 36.4658 21.895 39.4004C20.7408 40.1998 19.2591 40.1998 18.105 39.4004C13.8685 36.4658 4 28.4314 4 17.265ZM20 22.343C23.3138 22.343 26 19.6148 26 16.2494C26 12.8841 23.3138 10.1559 20 10.1559C16.6863 10.1559 14 12.8841 14 16.2494C14 19.6148 16.6863 22.343 20 22.343Z" fill="#416AF1"/>
</svg>
