<svg width="11" height="11" viewBox="0 0 11 11" fill="none" xmlns="http://www.w3.org/2000/svg">
<path fill-rule="evenodd" clip-rule="evenodd" d="M3.04483 1.60993C2.42455 2.15186 1.95159 3.11725 1.95159 4.86113C1.95159 7.22596 3.79646 9.04338 4.94748 9.93823C5.27969 10.1965 5.72025 10.1965 6.05245 9.93823C7.20349 9.04338 9.04836 7.22596 9.04836 4.86113C9.04836 3.11725 8.57541 2.15186 7.95512 1.60993C7.32224 1.05697 6.45038 0.86806 5.49998 0.86806C4.54958 0.86806 3.67772 1.05697 3.04483 1.60993ZM2.49061 0.950845C3.34804 0.201709 4.46328 0 5.49998 0C6.53667 0 7.65191 0.201709 8.50936 0.950845C9.3794 1.711 9.89998 2.95916 9.89998 4.86113C9.89998 7.67058 7.74244 9.71614 6.56896 10.6284C5.93173 11.1239 5.06824 11.1239 4.43102 10.6284C3.25754 9.71614 1.09998 7.67058 1.09998 4.86113C1.09998 2.95916 1.62056 1.711 2.49061 0.950845Z" fill="#666666"/>
<path fill-rule="evenodd" clip-rule="evenodd" d="M5.5 3.16249C4.81655 3.16249 4.2625 3.71654 4.2625 4.39999C4.2625 5.08345 4.81655 5.63749 5.5 5.63749C6.18343 5.63749 6.7375 5.08345 6.7375 4.39999C6.7375 3.71654 6.18343 3.16249 5.5 3.16249ZM3.4375 4.39999C3.4375 3.26091 4.36091 2.33749 5.5 2.33749C6.63911 2.33749 7.5625 3.26091 7.5625 4.39999C7.5625 5.5391 6.63911 6.46249 5.5 6.46249C4.36091 6.46249 3.4375 5.5391 3.4375 4.39999Z" fill="#666666"/>
</svg>
